<svg xmlns="http://www.w3.org/2000/svg" version="1.1" xmlns:xlink="http://www.w3.org/1999/xlink" xmlns:svgjs="http://svgjs.com/svgjs" width="1440" height="560" preserveAspectRatio="none" viewBox="0 0 1440 560"><g mask="url(&quot;#SvgjsMask1015&quot;)" fill="none"><path d="M812.3268582155329 562.7189761862879L759.7869156982912 467.93441082596837 717.5422928552133 615.2589187035296z" fill="rgba(214, 206, 5, 0.4)" class="triangle-float2"></path><path d="M699.9488261080263 385.2729929525479L606.1172644183116 466.6826578539874 708.1606902018377 503.8234274417432z" fill="rgba(214, 206, 5, 0.4)" class="triangle-float3"></path><path d="M405.383,231.422C435.663,230.684,461.689,209.805,474.534,182.375C485.728,158.47,476.306,131.971,462.486,109.482C449.484,88.325,430.171,71.341,405.383,69.85C377.815,68.192,350.022,78.64,334.996,101.813C318.626,127.059,315.778,159.452,330.138,185.893C345.133,213.504,373.972,232.187,405.383,231.422" fill="rgba(214, 206, 5, 0.4)" class="triangle-float1"></path><path d="M1156.7106474902707 61.46242980829236L1080.6980628398733 13.964495300845698 1033.2001283324266 89.97707995124304 1109.212712982824 137.4750144586897z" fill="rgba(214, 206, 5, 0.4)" class="triangle-float2"></path><path d="M75.107,167.188C113.089,167.16,152.574,153.618,170.417,120.088C187.49,88.005,172.529,50.765,153.554,19.769C135.643,-9.49,109.413,-35.686,75.107,-35.608C40.906,-35.53,15.151,-9.033,-2.727,20.123C-21.712,51.086,-37.437,88.128,-20.447,120.229C-2.654,153.849,37.069,167.216,75.107,167.188" fill="rgba(214, 206, 5, 0.4)" class="triangle-float2"></path><path d="M713.308,252.569C729.049,251.273,738.709,236.718,745.824,222.617C752.078,210.221,754.506,196.08,747.998,183.816C741.076,170.772,728.075,161.268,713.308,161.34C698.648,161.411,687.118,171.813,679.2,184.151C670.391,197.877,662.698,214.265,669.975,228.862C677.849,244.655,695.721,254.017,713.308,252.569" fill="rgba(214, 206, 5, 0.4)" class="triangle-float1"></path><path d="M136.36291317722223 369.7356974361664L177.75680217835514 433.4766968250408 252.67135676110033 339.5153636289042z" fill="rgba(214, 206, 5, 0.4)" class="triangle-float2"></path><path d="M701.9286604364335 249.7469570580809L778.9430633325048 175.51672480791842 689.5251676477277 148.17893062561217z" fill="rgba(214, 206, 5, 0.4)" class="triangle-float2"></path><path d="M656.5155187468622 201.1148290311611L659.9919434322707 12.264844591238273 514.2062089938072 89.78049459386504z" fill="rgba(214, 206, 5, 0.4)" class="triangle-float2"></path><path d="M170.18418652955506 177.73317564733338L309.67174534636035 245.76580378178667 238.21681466400835 38.24561683052809z" fill="rgba(214, 206, 5, 0.4)" class="triangle-float1"></path><path d="M1038.10161549344 420.60760469434285L1004.043651462565 293.50155252876397 876.937599296986 327.55951655963906 910.9955633278612 454.6655687252179z" fill="rgba(214, 206, 5, 0.4)" class="triangle-float1"></path><path d="M722.1980583544994 333.94603032963636L573.1789160759098 276.7429410770602 515.9758268233336 425.7620833556498 664.9949691019233 482.96517260822594z" fill="rgba(214, 206, 5, 0.4)" class="triangle-float3"></path><path d="M843.39,90.901C867.231,91.121,889.274,79.319,902.14,59.246C916.191,37.325,922.789,9.549,910.114,-13.196C897.17,-36.425,869.978,-46.625,843.39,-46.183C817.624,-45.755,792.736,-33.665,780.4,-11.04C768.516,10.756,773.438,37.061,786.487,58.18C798.814,78.13,819.94,90.685,843.39,90.901" fill="rgba(214, 206, 5, 0.4)" class="triangle-float2"></path></g><defs><mask id="SvgjsMask1015"><rect width="1440" height="560" fill="#ffffff"></rect></mask><style>
            @keyframes float1 {
                0%{transform: translate(0, 0)}
                50%{transform: translate(-10px, 0)}
                100%{transform: translate(0, 0)}
            }

            .triangle-float1 {
                animation: float1 5s infinite;
            }

            @keyframes float2 {
                0%{transform: translate(0, 0)}
                50%{transform: translate(-5px, -5px)}
                100%{transform: translate(0, 0)}
            }

            .triangle-float2 {
                animation: float2 4s infinite;
            }

            @keyframes float3 {
                0%{transform: translate(0, 0)}
                50%{transform: translate(0, -10px)}
                100%{transform: translate(0, 0)}
            }

            .triangle-float3 {
                animation: float3 6s infinite;
            }
        </style></defs></svg>